#!OML:ASF F:\VICON\USERDATA\INSTALL\rory3\rory3.ASF
:FULLY-SPECIFIED
:DEGREES
72
root 0.5141899794626955 17.75626277418216 33.716530715860884 -2.6920902860663567 1.711096937251225 -1.8117007423550837
lfemur 9.15392593402311 -4.936004111115173 -19.666444127173197
ltibia 44.96200615408099
lfoot 10.575059465593299 -16.37181039441001
ltoes -15.210909641536533
rfemur -25.118993173714948 4.517558238733559 25.68449204802939
rtibia 31.478719210188377
rfoot -2.630176840791264 -5.010244330483655
rtoes 11.161512607433416
lowerback 9.964885087709026 -1.6487772972743677 -0.7461411416260981
upperback 0.2754610800654324 -2.1378835457309 3.0459756811909977
thorax -5.1425574713685815 -0.9915539720179668 3.908853074000762
lowerneck -16.05478797500454 -2.2058888099873193 -2.4627952087025995
upperneck 20.13012553407287 -2.4865464821989223 0.32841040998804316
head 8.982622761079575 -1.3217503848124512 0.17406070635651827
lclavicle -7.638831349555558e-16 -6.574474532291949e-16
lhumerus -23.86131610048085 -1.1859458623608246 81.6663483374508
lradius 30.664713361321237
lwrist 7.519137771950918
lhand -30.460763598146276 21.018244838257573
lfingers 7.125020000000057
lthumb -3.762135228921042 50.96384575302772
rclavicle -7.638831349555558e-16 -6.574474532291949e-16
rhumerus -40.632916776288994 -32.66129432303113 -67.53352285798945
rradius 18.097647376839937
rwrist 14.995200116632557
rhand -17.324337088337284 30.43279254717327
rfingers 7.125020000000057
rthumb 8.92268075988012 -6.32351014795963
73
root 0.471584378922757 17.86066796353285 34.18768833615959 -3.175556142055929 1.4720557750335215 -3.213450690999816
lfemur 3.325358743312389 -3.8132233935494346 -17.170732844945146
ltibia 56.00659617857829
lfoot 16.07325760077207 -18.376611645187154
ltoes -9.430301434526568
rfemur -22.17760036882695 4.831383783651958 27.847234137956026
rtibia 32.10116638962529
rfoot -4.335416400236319 -5.324981293281609
rtoes 13.922654944537733
lowerback 10.137610422055282 -1.5118012212653857 0.375255725400373
upperback 0.29679709178702923 -1.8155256000954871 3.3018293826703653
thorax -5.288466049835353 -0.8543164516792502 3.43614971340385
lowerneck -15.780793103429307 -2.286445105315821 -2.4543419179524886
upperneck 20.15334055972797 -2.629513847653234 0.3711537618234413
head 8.936063523575639 -1.3825935467001278 0.17592772300703946
lclavicle -9.487425126766443e-16 -8.005846318693047e-16
lhumerus -25.325882446573704 -1.3292239858102273 82.39216928061622
lradius 29.83426086445616
lwrist 6.499778551621745
lhand -29.81811579731697 21.3615235739562
lfingers 7.125020000000057
lthumb -3.1415268581629467 51.31101748188239
rclavicle -9.487425126766443e-16 -8.005846318693047e-16
rhumerus -40.20156268372515 -31.597143087205957 -68.72553433779048
rradius 18.407577263011085
rwrist 13.821711528825134
rhand -17.210346900694347 30.41476795910214
rfingers 7.125020000000057
rthumb 9.032708361739456 -6.022339857812333
74
root 0.4414812783384554 17.951815543993874 34.734818730428515 -3.5741238852230235 1.0665515222770616 -4.260093919189151
lfemur -2.826144435912088 -2.3857035615891307 -15.287463625425772
ltibia 65.31721986986952
lfoot 16.39234934403888 -17.919428300228645
ltoes -5.506859933209586
rfemur -18.956425439769994 5.18492325270359 29.52684984398374
rtibia 31.47716820348967
rfoot -6.5108217873402925 -5.98358585345456
rtoes 14.74688597094956
lowerback 10.259741853566089 -1.2428902211728792 1.2558609151697373
upperback 0.3563280010216336 -1.3512782492481272 3.3685270906430893
thorax -5.3560282727184525 -0.6455064887820697 2.891017583031589
lowerneck -15.547781016752541 -2.4386064693389136 -2.460653326585163
upperneck 20.161160905590084 -2.892346395222047 0.5273594698809163
head 8.896876775522296 -1.4874338136060397 0.20602200639631194
lclavicle -1.1321752541143232e-15 -9.426171669182784e-16
lhumerus -26.56050917951855 -1.5320879987052278 82.88636467828914
lradius 28.725741952687706
lwrist 5.309053415707407
lhand -29.495203954218432 21.310460119123952
lfingers 7.125020000000056
lthumb -2.8296638375466725 51.26665482100549
rclavicle -1.1321752541143232e-15 -9.426171669182784e-16
rhumerus -38.852063742726045 -29.577332635976642 -70.88455562404343
rradius 19.051349328142123
rwrist 12.061728217763847
rhand -17.0979819704858 30.37006882382632
rfingers 7.125020000000056
rthumb 9.141199214685797 -5.863567498765393
75
root 0.41853983969540076 18.010841686530675 35.341069515532055 -3.894058254555845 0.4540220918902609 -4.974424561379552
lfemur -8.762850364541046 -0.8593445206691814 -14.150546315240444
ltibia 71.88925835758238
lfoot 12.001733027298455 -15.625952192392184
ltoes -4.849331271757002
rfemur -15.956300070571762 5.445761448747401 30.72518713996937
rtibia 30.418534810408687
rfoot -8.978847072640736 -6.567624208635468
rtoes 14.376802858954187
lowerback 10.291943357714551 -0.8767291952707849 1.9076001899578887
upperback 0.42555593324432567 -0.7894947252253087 3.2654190651122716
thorax -5.358036921032359 -0.3862111342930634 2.276130268422535
lowerneck -15.363648089576921 -2.602877281679437 -2.46918053953778
upperneck 20.2104551805433 -3.1740314914165397 0.6926458880879125
head 8.882253722836406 -1.5982926288863764 0.23745408983334973
lclavicle -1.3980084323498428e-15 -1.1484526005701436e-15
lhumerus -27.70249314320259 -1.4174312347405065 83.05165270357242
lradius 27.409053061825233
lwrist 4.306351949414161
lhand -29.545775419507912 20.81553925396539
lfingers 7.125020000000056
lthumb -2.8784587196912055 50.779766111726
rclavicle -1.3980084323498428e-15 -1.1484526005701436e-15
rhumerus -37.02792909383995 -27.188195332028293 -73.45592916301564
rradius 19.66843396614083
rwrist 10.150418949087236
rhand -17.0211187945354 30.222754830290256
rfingers 7.125020000000056
rthumb 9.215441734827452 -6.107886438539188
